<?xml version="1.0" encoding="UTF-8"?>
<!DOCTYPE svg PUBLIC "-//W3C//DTD SVG 1.1//EN" "http://www.w3.org/Graphics/SVG/1.1/DTD/svg11.dtd">
<svg xmlns="http://www.w3.org/2000/svg" version="1.1" width="24px" height="24px" style="shape-rendering:geometricPrecision; text-rendering:geometricPrecision; image-rendering:optimizeQuality; fill-rule:evenodd; clip-rule:evenodd" xmlns:xlink="http://www.w3.org/1999/xlink">
<g><path style="opacity:0.582" fill="#0c0a03" d="M 23.5,9.5 C 23.5,11.8333 23.5,14.1667 23.5,16.5C 22.8501,16.8039 22.1835,17.1373 21.5,17.5C 18.1667,16.1667 14.8333,14.8333 11.5,13.5C 8.16667,14.8333 4.83333,16.1667 1.5,17.5C 0.816537,17.1373 0.14987,16.8039 -0.5,16.5C -0.5,14.1667 -0.5,11.8333 -0.5,9.5C 3.55043,8.37208 7.55043,7.03875 11.5,5.5C 15.4496,7.03875 19.4496,8.37208 23.5,9.5 Z"/></g>
<g><path style="opacity:1" fill="#cfc038" d="M 10.5,7.5 C 13.9188,8.37381 17.2522,9.54048 20.5,11C 21.3366,12.0113 21.67,13.1779 21.5,14.5C 18.0547,13.9074 14.7213,12.9074 11.5,11.5C 8.27868,12.9074 4.94534,13.9074 1.5,14.5C 1.33003,13.1779 1.66337,12.0113 2.5,11C 5.3093,9.9066 7.97597,8.73993 10.5,7.5 Z"/></g>
</svg>
